<mxfile host="65bd71144e">
    <diagram id="MlbSH8UzpJnoCAAvpNdU" name="Page-1">
        <mxGraphModel dx="2305" dy="1017" grid="1" gridSize="10" guides="1" tooltips="1" connect="1" arrows="1" fold="1" page="1" pageScale="1" pageWidth="850" pageHeight="1100" math="0" shadow="0">
            <root>
                <mxCell id="0"/>
                <mxCell id="1" parent="0"/>
                <mxCell id="2" value="" style="edgeStyle=none;html=1;entryX=0.5;entryY=0;entryDx=0;entryDy=0;" edge="1" parent="1" source="3" target="5">
                    <mxGeometry relative="1" as="geometry">
                        <mxPoint x="207.5" y="130" as="targetPoint"/>
                    </mxGeometry>
                </mxCell>
                <mxCell id="3" value="BEGIN" style="strokeWidth=2;html=1;shape=mxgraph.flowchart.terminator;whiteSpace=wrap;" vertex="1" parent="1">
                    <mxGeometry x="157.5" y="20" width="100" height="60" as="geometry"/>
                </mxCell>
                <mxCell id="4" value="" style="edgeStyle=none;html=1;" edge="1" parent="1" source="5" target="7">
                    <mxGeometry relative="1" as="geometry"/>
                </mxCell>
                <mxCell id="5" value="double q1, q2, q3, q4, q5" style="shape=parallelogram;html=1;strokeWidth=2;perimeter=parallelogramPerimeter;whiteSpace=wrap;rounded=1;arcSize=12;size=0.23;" vertex="1" parent="1">
                    <mxGeometry x="101.25" y="130" width="212.5" height="50" as="geometry"/>
                </mxCell>
                <mxCell id="6" value="" style="edgeStyle=none;html=1;fontSize=12;" edge="1" parent="1" source="7" target="11">
                    <mxGeometry relative="1" as="geometry"/>
                </mxCell>
                <mxCell id="7" value="&lt;font style=&quot;font-size: 12px&quot; color=&quot;#000000&quot;&gt;double p1 = 0, p2 = 0, p3 = 0, p4 = 0, p5 = 0,&lt;br&gt;&amp;nbsp;por = 50000,&lt;br&gt;bal = 48000,&lt;br&gt;pol = 48000,&lt;br&gt;mon = 47000,&lt;br&gt;&lt;span style=&quot;font-family: &amp;#34;gg sans&amp;#34; , &amp;#34;noto sans&amp;#34; , &amp;#34;helvetica neue&amp;#34; , &amp;#34;helvetica&amp;#34; , &amp;#34;arial&amp;#34; , sans-serif ; text-align: left&quot;&gt;spa = 46000,&lt;br&gt;car = 2000,&amp;nbsp;&lt;br&gt;&amp;nbsp;roomPor = 2000, &lt;br&gt;roomBal = 1500, &lt;br&gt;roomPol = 1200,&lt;br&gt;roomMon = 1600,&lt;br&gt;roomSpa = 2100,&lt;br&gt;&amp;nbsp;carRPor = 0,&lt;br&gt;&amp;nbsp;carRBal = 0,&lt;br&gt;&amp;nbsp;carRPol = 0,&lt;br&gt;&amp;nbsp;carRMon = 0,&lt;br&gt;&amp;nbsp;carRSpa = 0,&lt;br&gt;&amp;nbsp;roomRPor = 0,&lt;br&gt;&amp;nbsp;roomRBal = 0,&lt;br&gt;&amp;nbsp;roomRPol = 0,&lt;br&gt;&amp;nbsp;roomRMon = 0,&lt;br&gt;&amp;nbsp;roomRSpa = 0,&lt;br&gt;&amp;nbsp;sum = 0;&lt;/span&gt;&lt;/font&gt;" style="whiteSpace=wrap;html=1;strokeWidth=2;rounded=1;arcSize=12;" vertex="1" parent="1">
                    <mxGeometry x="40" y="220" width="335" height="340" as="geometry"/>
                </mxCell>
                <mxCell id="8" value="" style="edgeStyle=none;html=1;fontSize=12;" edge="1" parent="1" source="11" target="14">
                    <mxGeometry relative="1" as="geometry"/>
                </mxCell>
                <mxCell id="9" value="" style="edgeStyle=none;html=1;fontSize=12;" edge="1" parent="1" source="11" target="42">
                    <mxGeometry relative="1" as="geometry"/>
                </mxCell>
                <mxCell id="10" value="Yes" style="edgeLabel;html=1;align=center;verticalAlign=middle;resizable=0;points=[];fontSize=12;fontFamily=Helvetica;fontColor=#000000;labelBackgroundColor=none;" vertex="1" connectable="0" parent="9">
                    <mxGeometry x="-0.3094" relative="1" as="geometry">
                        <mxPoint x="2" as="offset"/>
                    </mxGeometry>
                </mxCell>
                <mxCell id="11" value="carC1.isSelected()" style="rhombus;whiteSpace=wrap;html=1;strokeWidth=2;rounded=1;arcSize=12;" vertex="1" parent="1">
                    <mxGeometry x="128.13" y="600" width="158.75" height="70" as="geometry"/>
                </mxCell>
                <mxCell id="12" value="" style="edgeStyle=none;html=1;fontSize=12;" edge="1" parent="1" source="14" target="17">
                    <mxGeometry relative="1" as="geometry"/>
                </mxCell>
                <mxCell id="13" value="" style="edgeStyle=none;html=1;fontFamily=Helvetica;fontSize=12;" edge="1" parent="1" source="14" target="44">
                    <mxGeometry relative="1" as="geometry"/>
                </mxCell>
                <mxCell id="14" value="roomC1.isSelected()" style="rhombus;whiteSpace=wrap;html=1;strokeWidth=2;rounded=1;arcSize=12;" vertex="1" parent="1">
                    <mxGeometry x="128.12" y="700" width="158.75" height="70" as="geometry"/>
                </mxCell>
                <mxCell id="15" value="" style="edgeStyle=none;html=1;fontSize=12;" edge="1" parent="1" source="17" target="20">
                    <mxGeometry relative="1" as="geometry"/>
                </mxCell>
                <mxCell id="16" value="" style="edgeStyle=none;html=1;fontFamily=Helvetica;fontSize=12;" edge="1" parent="1" source="17" target="46">
                    <mxGeometry relative="1" as="geometry"/>
                </mxCell>
                <mxCell id="17" value="carC2.isSelected()" style="rhombus;whiteSpace=wrap;html=1;strokeWidth=2;rounded=1;arcSize=12;" vertex="1" parent="1">
                    <mxGeometry x="128.12" y="800" width="158.75" height="70" as="geometry"/>
                </mxCell>
                <mxCell id="18" value="" style="edgeStyle=none;html=1;fontSize=12;" edge="1" parent="1" source="20" target="23">
                    <mxGeometry relative="1" as="geometry"/>
                </mxCell>
                <mxCell id="19" value="" style="edgeStyle=none;html=1;fontFamily=Helvetica;fontSize=12;" edge="1" parent="1" source="20" target="48">
                    <mxGeometry relative="1" as="geometry"/>
                </mxCell>
                <mxCell id="20" value="roomC2.isSelected()" style="rhombus;whiteSpace=wrap;html=1;strokeWidth=2;rounded=1;arcSize=12;" vertex="1" parent="1">
                    <mxGeometry x="128.12" y="900" width="158.75" height="70" as="geometry"/>
                </mxCell>
                <mxCell id="21" value="" style="edgeStyle=none;html=1;fontSize=12;" edge="1" parent="1" source="23" target="26">
                    <mxGeometry relative="1" as="geometry"/>
                </mxCell>
                <mxCell id="22" value="" style="edgeStyle=none;html=1;fontFamily=Helvetica;fontSize=12;" edge="1" parent="1" source="23" target="50">
                    <mxGeometry relative="1" as="geometry"/>
                </mxCell>
                <mxCell id="23" value="carC3.isSelected()" style="rhombus;whiteSpace=wrap;html=1;strokeWidth=2;rounded=1;arcSize=12;" vertex="1" parent="1">
                    <mxGeometry x="128.14" y="1000" width="158.75" height="70" as="geometry"/>
                </mxCell>
                <mxCell id="24" value="" style="edgeStyle=none;html=1;fontSize=12;" edge="1" parent="1" source="26" target="29">
                    <mxGeometry relative="1" as="geometry"/>
                </mxCell>
                <mxCell id="25" value="" style="edgeStyle=none;html=1;fontFamily=Helvetica;fontSize=12;" edge="1" parent="1" source="26" target="52">
                    <mxGeometry relative="1" as="geometry"/>
                </mxCell>
                <mxCell id="26" value="roomC3.isSelected()" style="rhombus;whiteSpace=wrap;html=1;strokeWidth=2;rounded=1;arcSize=12;" vertex="1" parent="1">
                    <mxGeometry x="128.13" y="1100" width="158.75" height="70" as="geometry"/>
                </mxCell>
                <mxCell id="27" value="" style="edgeStyle=none;html=1;fontSize=12;" edge="1" parent="1" source="29" target="32">
                    <mxGeometry relative="1" as="geometry"/>
                </mxCell>
                <mxCell id="28" value="" style="edgeStyle=none;html=1;fontFamily=Helvetica;fontSize=12;" edge="1" parent="1" source="29" target="54">
                    <mxGeometry relative="1" as="geometry"/>
                </mxCell>
                <mxCell id="29" value="carC4.isSelected()" style="rhombus;whiteSpace=wrap;html=1;strokeWidth=2;rounded=1;arcSize=12;" vertex="1" parent="1">
                    <mxGeometry x="128.13" y="1200" width="158.75" height="70" as="geometry"/>
                </mxCell>
                <mxCell id="30" value="" style="edgeStyle=none;html=1;fontSize=12;" edge="1" parent="1" target="35">
                    <mxGeometry relative="1" as="geometry">
                        <mxPoint x="207.48849984567642" y="1369.9984567609617" as="sourcePoint"/>
                    </mxGeometry>
                </mxCell>
                <mxCell id="31" value="" style="edgeStyle=none;html=1;fontFamily=Helvetica;fontSize=12;" edge="1" parent="1" source="32" target="56">
                    <mxGeometry relative="1" as="geometry"/>
                </mxCell>
                <mxCell id="32" value="roomC4.isSelected()" style="rhombus;whiteSpace=wrap;html=1;strokeWidth=2;rounded=1;arcSize=12;" vertex="1" parent="1">
                    <mxGeometry x="128.13" y="1300" width="158.75" height="70" as="geometry"/>
                </mxCell>
                <mxCell id="33" value="" style="edgeStyle=none;html=1;fontSize=12;" edge="1" parent="1" source="35" target="38">
                    <mxGeometry relative="1" as="geometry"/>
                </mxCell>
                <mxCell id="34" value="" style="edgeStyle=none;html=1;fontFamily=Helvetica;fontSize=12;" edge="1" parent="1" source="35" target="58">
                    <mxGeometry relative="1" as="geometry"/>
                </mxCell>
                <mxCell id="35" value="carC5.isSelected()" style="rhombus;whiteSpace=wrap;html=1;strokeWidth=2;rounded=1;arcSize=12;" vertex="1" parent="1">
                    <mxGeometry x="128.11999999999998" y="1400" width="158.75" height="70" as="geometry"/>
                </mxCell>
                <mxCell id="36" value="" style="edgeStyle=none;html=1;fontFamily=Helvetica;fontSize=12;" edge="1" parent="1" source="38" target="60">
                    <mxGeometry relative="1" as="geometry"/>
                </mxCell>
                <mxCell id="37" style="edgeStyle=none;html=1;exitX=0.5;exitY=1;exitDx=0;exitDy=0;entryX=0;entryY=0.5;entryDx=0;entryDy=0;entryPerimeter=0;fontFamily=Helvetica;fontSize=12;fontColor=#FFFFFF;" edge="1" parent="1" source="38" target="62">
                    <mxGeometry relative="1" as="geometry">
                        <Array as="points">
                            <mxPoint x="207" y="1665"/>
                        </Array>
                    </mxGeometry>
                </mxCell>
                <mxCell id="38" value="roomC5.isSelected()" style="rhombus;whiteSpace=wrap;html=1;strokeWidth=2;rounded=1;arcSize=12;" vertex="1" parent="1">
                    <mxGeometry x="128.11999999999998" y="1500" width="158.75" height="70" as="geometry"/>
                </mxCell>
                <mxCell id="39" style="edgeStyle=none;html=1;exitX=0.5;exitY=1;exitDx=0;exitDy=0;exitPerimeter=0;entryX=0.5;entryY=0;entryDx=0;entryDy=0;entryPerimeter=0;fontFamily=Helvetica;fontSize=12;fontColor=#FFFFFF;" edge="1" parent="1" source="40" target="65">
                    <mxGeometry relative="1" as="geometry"/>
                </mxCell>
                <mxCell id="40" value="&lt;div style=&quot;line-height: 19px&quot;&gt;&lt;div style=&quot;text-align: justify&quot;&gt;&lt;font style=&quot;font-size: 12px&quot;&gt;&lt;font style=&quot;font-size: 12px&quot;&gt;&quot;1) แพ็คเกจทัวร์ประเทศโปรตุเกส ราคา 50,000 บาท / คน จำนวน &quot; + (int) q1 + &quot; คน = &quot; + (int) p1&amp;nbsp;&lt;/font&gt;+ &quot; บาท เช่ารถ &quot; + (int) carRPor + &quot; บาท ห้องพัก &quot; + (int) roomRPor + &quot; บาท&quot;&lt;/font&gt;&lt;/div&gt;&lt;div&gt;&lt;div style=&quot;line-height: 19px&quot;&gt;&lt;div style=&quot;text-align: justify&quot;&gt;&lt;font style=&quot;font-size: 12px&quot;&gt;&lt;font style=&quot;font-size: 12px&quot;&gt;&quot;2) แพ็คเกจทัวร์ประเทศบัลแกเรีย ราคา 49,000 บาท / คน จำนวน &quot; + (int) q2 + &quot; คน = &quot; + (int) p2&amp;nbsp;&lt;/font&gt;&lt;b&gt;+ &quot; บาท เช่ารถ &quot; + (int) carRBal + &quot; บาท ห้องพั&lt;/b&gt;ก &quot; + (int) roomRBal + &quot; บาท&quot;&lt;/font&gt;&lt;/div&gt;&lt;div&gt;&lt;div style=&quot;line-height: 19px&quot;&gt;&lt;div style=&quot;text-align: justify&quot;&gt;&lt;font style=&quot;font-size: 12px&quot;&gt;&lt;font style=&quot;font-size: 12px&quot;&gt;&quot;3) แพ็คเกจทัวร์ประเทศโปแลนด์ ราคา 48,000 บาท / คน จำนวน &quot; + (int) q3 + &quot; คน = &quot; + (int) p3&amp;nbsp;&lt;/font&gt;+ &quot; บาท เช่ารถ &quot; + (int) carRPol + &quot; บาท ห้องพัก &quot; + (int) roomRPol + &quot; บาท&quot;&lt;/font&gt;&lt;/div&gt;&lt;div&gt;&lt;div style=&quot;line-height: 19px&quot;&gt;&lt;div style=&quot;text-align: justify&quot;&gt;&lt;font style=&quot;font-size: 12px&quot;&gt;&lt;font style=&quot;font-size: 12px&quot;&gt;&quot;4) แพ็คเกจทัวร์ประเทศโมนาโก ราคา 47,000 บาท / คน จำนวน &quot; + (int) q4 + &quot; คน = &quot; + (int) p4&amp;nbsp;&lt;/font&gt;+ &quot; บาท เช่ารถ &quot; + (int) carRMon + &quot; บาท ห้องพัก &quot; + (int) roomRMon + &quot; บาท&quot;&lt;/font&gt;&lt;/div&gt;&lt;div style=&quot;text-align: justify&quot;&gt;&lt;div style=&quot;line-height: 19px&quot;&gt;&lt;div&gt;&lt;font style=&quot;font-size: 12px&quot;&gt;&lt;font style=&quot;font-size: 12px&quot;&gt;&quot;5) แพ็คเกจทัวร์ประเทศสเปน ราคา 46,000 บาท / คน จำนวน &quot; + (int) q5 + &quot; คน = &quot; + (int) p5&lt;/font&gt;&amp;nbsp;+ &quot; บาท เช่ารถ &quot; + (int) carRSpa + &quot; บาท ห้องพัก &quot; + (int) roomRSpa + &quot; บาท&quot;&lt;/font&gt;&lt;/div&gt;&lt;div&gt;&lt;div style=&quot;line-height: 19px&quot;&gt;&lt;font style=&quot;font-size: 12px&quot;&gt;&quot;รวมทั้งสิ้น = &quot; + (int) sum + &quot; บาท&quot;&lt;/font&gt;&lt;/div&gt;&lt;/div&gt;&lt;/div&gt;&lt;/div&gt;&lt;/div&gt;&lt;/div&gt;&lt;/div&gt;&lt;/div&gt;&lt;/div&gt;&lt;/div&gt;&lt;/div&gt;" style="strokeWidth=2;html=1;shape=mxgraph.flowchart.display;whiteSpace=wrap;align=center;fontColor=#000000;" vertex="1" parent="1">
                    <mxGeometry x="-351.13" y="1940" width="1260.75" height="310" as="geometry"/>
                </mxCell>
                <mxCell id="41" style="edgeStyle=none;html=1;entryX=1;entryY=0.5;entryDx=0;entryDy=0;entryPerimeter=0;fontFamily=Helvetica;fontSize=12;fontColor=#FFFFFF;" edge="1" parent="1" source="42" target="62">
                    <mxGeometry relative="1" as="geometry">
                        <Array as="points">
                            <mxPoint x="800" y="635"/>
                            <mxPoint x="800" y="1665"/>
                        </Array>
                    </mxGeometry>
                </mxCell>
                <mxCell id="42" value="&lt;p style=&quot;line-height: 19px&quot;&gt;&lt;font&gt;carRPor = car * Math.ceil(q1 / 4) * 3;&lt;/font&gt;&lt;/p&gt;" style="rounded=1;whiteSpace=wrap;html=1;absoluteArcSize=1;arcSize=14;strokeWidth=2;fontSize=12;fontColor=#000000;" vertex="1" parent="1">
                    <mxGeometry x="360" y="605" width="300" height="60" as="geometry"/>
                </mxCell>
                <mxCell id="43" style="edgeStyle=none;html=1;fontFamily=Helvetica;fontSize=12;fontColor=#FFFFFF;" edge="1" parent="1" source="44">
                    <mxGeometry relative="1" as="geometry">
                        <mxPoint x="800" y="740" as="targetPoint"/>
                    </mxGeometry>
                </mxCell>
                <mxCell id="44" value="&lt;p style=&quot;line-height: 19px&quot;&gt;&lt;font&gt;roomRPor = car * Math.ceil(q1 /&amp;nbsp;2) * 3;&lt;/font&gt;&lt;/p&gt;" style="rounded=1;whiteSpace=wrap;html=1;absoluteArcSize=1;arcSize=14;strokeWidth=2;fontSize=12;fontColor=#000000;" vertex="1" parent="1">
                    <mxGeometry x="360" y="710" width="300" height="60" as="geometry"/>
                </mxCell>
                <mxCell id="45" style="edgeStyle=none;html=1;fontFamily=Helvetica;fontSize=12;fontColor=#FFFFFF;" edge="1" parent="1" source="46">
                    <mxGeometry relative="1" as="geometry">
                        <mxPoint x="800" y="830" as="targetPoint"/>
                    </mxGeometry>
                </mxCell>
                <mxCell id="46" value="&lt;p style=&quot;line-height: 19px&quot;&gt;&lt;font&gt;carRBal&amp;nbsp;= car * Math.ceil(q1 / 4) * 4;&lt;/font&gt;&lt;/p&gt;" style="rounded=1;whiteSpace=wrap;html=1;absoluteArcSize=1;arcSize=14;strokeWidth=2;fontSize=12;fontColor=#000000;" vertex="1" parent="1">
                    <mxGeometry x="360" y="805" width="300" height="60" as="geometry"/>
                </mxCell>
                <mxCell id="47" style="edgeStyle=none;html=1;fontFamily=Helvetica;fontSize=12;fontColor=#FFFFFF;" edge="1" parent="1" source="48">
                    <mxGeometry relative="1" as="geometry">
                        <mxPoint x="800" y="940" as="targetPoint"/>
                    </mxGeometry>
                </mxCell>
                <mxCell id="48" value="&lt;p style=&quot;line-height: 19px&quot;&gt;&lt;font&gt;roomRBal = car * Math.ceil(q1 /&amp;nbsp;2) * 4;&lt;/font&gt;&lt;/p&gt;" style="rounded=1;whiteSpace=wrap;html=1;absoluteArcSize=1;arcSize=14;strokeWidth=2;fontSize=12;fontColor=#000000;" vertex="1" parent="1">
                    <mxGeometry x="360" y="910" width="300" height="60" as="geometry"/>
                </mxCell>
                <mxCell id="49" style="edgeStyle=none;html=1;fontFamily=Helvetica;fontSize=12;fontColor=#FFFFFF;" edge="1" parent="1" source="50">
                    <mxGeometry relative="1" as="geometry">
                        <mxPoint x="800" y="1035" as="targetPoint"/>
                    </mxGeometry>
                </mxCell>
                <mxCell id="50" value="&lt;p style=&quot;line-height: 19px&quot;&gt;&lt;font&gt;carRPol&amp;nbsp;= car * Math.ceil(q1 / 4) * 5;&lt;/font&gt;&lt;/p&gt;" style="rounded=1;whiteSpace=wrap;html=1;absoluteArcSize=1;arcSize=14;strokeWidth=2;fontSize=12;fontColor=#000000;" vertex="1" parent="1">
                    <mxGeometry x="360" y="1005" width="300" height="60" as="geometry"/>
                </mxCell>
                <mxCell id="51" style="edgeStyle=none;html=1;fontFamily=Helvetica;fontSize=12;fontColor=#FFFFFF;" edge="1" parent="1" source="52">
                    <mxGeometry relative="1" as="geometry">
                        <mxPoint x="800" y="1140" as="targetPoint"/>
                    </mxGeometry>
                </mxCell>
                <mxCell id="52" value="&lt;p style=&quot;line-height: 19px&quot;&gt;&lt;font&gt;roomRPol&amp;nbsp;= car * Math.ceil(q1 /&amp;nbsp;2) * 5;&lt;/font&gt;&lt;/p&gt;" style="rounded=1;whiteSpace=wrap;html=1;absoluteArcSize=1;arcSize=14;strokeWidth=2;fontSize=12;fontColor=#000000;" vertex="1" parent="1">
                    <mxGeometry x="360" y="1110" width="300" height="60" as="geometry"/>
                </mxCell>
                <mxCell id="53" style="edgeStyle=none;html=1;fontFamily=Helvetica;fontSize=12;fontColor=#FFFFFF;" edge="1" parent="1" source="54">
                    <mxGeometry relative="1" as="geometry">
                        <mxPoint x="800" y="1235" as="targetPoint"/>
                    </mxGeometry>
                </mxCell>
                <mxCell id="54" value="&lt;p style=&quot;line-height: 19px&quot;&gt;&lt;font&gt;carRMon&amp;nbsp;= car * Math.ceil(q1 / 4) * 6;&lt;/font&gt;&lt;/p&gt;" style="rounded=1;whiteSpace=wrap;html=1;absoluteArcSize=1;arcSize=14;strokeWidth=2;fontSize=12;fontColor=#000000;" vertex="1" parent="1">
                    <mxGeometry x="360" y="1205" width="300" height="60" as="geometry"/>
                </mxCell>
                <mxCell id="55" style="edgeStyle=none;html=1;fontFamily=Helvetica;fontSize=12;fontColor=#FFFFFF;" edge="1" parent="1" source="56">
                    <mxGeometry relative="1" as="geometry">
                        <mxPoint x="800" y="1340" as="targetPoint"/>
                    </mxGeometry>
                </mxCell>
                <mxCell id="56" value="&lt;p style=&quot;line-height: 19px&quot;&gt;&lt;font&gt;roomRMon = car * Math.ceil(q1 /&amp;nbsp;2) * 6;&lt;/font&gt;&lt;/p&gt;" style="rounded=1;whiteSpace=wrap;html=1;absoluteArcSize=1;arcSize=14;strokeWidth=2;fontSize=12;fontColor=#000000;" vertex="1" parent="1">
                    <mxGeometry x="360" y="1310" width="300" height="60" as="geometry"/>
                </mxCell>
                <mxCell id="57" style="edgeStyle=none;html=1;fontFamily=Helvetica;fontSize=12;fontColor=#FFFFFF;" edge="1" parent="1" source="58">
                    <mxGeometry relative="1" as="geometry">
                        <mxPoint x="800" y="1435" as="targetPoint"/>
                    </mxGeometry>
                </mxCell>
                <mxCell id="58" value="&lt;p style=&quot;line-height: 19px&quot;&gt;&lt;font&gt;carRSpa&amp;nbsp;= car * Math.ceil(q1 / 4) * 6;&lt;/font&gt;&lt;/p&gt;" style="rounded=1;whiteSpace=wrap;html=1;absoluteArcSize=1;arcSize=14;strokeWidth=2;fontSize=12;fontColor=#000000;" vertex="1" parent="1">
                    <mxGeometry x="360" y="1405" width="300" height="60" as="geometry"/>
                </mxCell>
                <mxCell id="59" style="edgeStyle=none;html=1;fontFamily=Helvetica;fontSize=12;fontColor=#FFFFFF;" edge="1" parent="1" source="60">
                    <mxGeometry relative="1" as="geometry">
                        <mxPoint x="800" y="1539.9999999999995" as="targetPoint"/>
                    </mxGeometry>
                </mxCell>
                <mxCell id="60" value="&lt;p style=&quot;line-height: 19px&quot;&gt;&lt;font&gt;roomRSpa = car * Math.ceil(q1 /&amp;nbsp;2) * 6;&lt;/font&gt;&lt;/p&gt;" style="rounded=1;whiteSpace=wrap;html=1;absoluteArcSize=1;arcSize=14;strokeWidth=2;fontSize=12;fontColor=#000000;" vertex="1" parent="1">
                    <mxGeometry x="360" y="1510" width="300" height="60" as="geometry"/>
                </mxCell>
                <mxCell id="61" style="edgeStyle=none;html=1;exitX=0.5;exitY=1;exitDx=0;exitDy=0;exitPerimeter=0;entryX=0.5;entryY=0;entryDx=0;entryDy=0;fontFamily=Helvetica;fontSize=12;fontColor=#FFFFFF;" edge="1" parent="1" source="62" target="64">
                    <mxGeometry relative="1" as="geometry"/>
                </mxCell>
                <mxCell id="62" value="" style="strokeWidth=2;html=1;shape=mxgraph.flowchart.start_2;whiteSpace=wrap;" vertex="1" parent="1">
                    <mxGeometry x="264.25" y="1650" width="30" height="30" as="geometry"/>
                </mxCell>
                <mxCell id="63" style="edgeStyle=none;html=1;exitX=0.5;exitY=1;exitDx=0;exitDy=0;fontFamily=Helvetica;fontSize=12;fontColor=#000000;entryX=0.5;entryY=0;entryDx=0;entryDy=0;entryPerimeter=0;" edge="1" parent="1" source="64" target="40">
                    <mxGeometry relative="1" as="geometry">
                        <mxPoint x="279" y="1930" as="targetPoint"/>
                    </mxGeometry>
                </mxCell>
                <mxCell id="64" value="&lt;div style=&quot;font-size: 14px ; line-height: 19px&quot;&gt;&lt;div style=&quot;line-height: 19px ; font-size: 12px&quot;&gt;&lt;div style=&quot;line-height: 19px&quot;&gt;&lt;div&gt;p1 = por * q1&lt;/div&gt;&lt;div&gt;p2 = bal * q2&lt;/div&gt;&lt;div&gt;p3 = pol * q3&lt;/div&gt;&lt;div&gt;p4 = mon * q4&lt;/div&gt;&lt;div&gt;p5 = spa * q5&lt;/div&gt;&lt;div&gt;sum =&amp;nbsp;p1 + p2 + p3 + p4 + p5 + carRPor + carRBal + carRPol + carRMon + carRSpa + roomRPor + roomRBal + roomRPol + roomRMon + roomRSpa;&lt;/div&gt;&lt;/div&gt;&lt;/div&gt;&lt;/div&gt;" style="rounded=1;whiteSpace=wrap;html=1;absoluteArcSize=1;arcSize=14;strokeWidth=2;fontFamily=Helvetica;fontSize=12;fontColor=#000000;" vertex="1" parent="1">
                    <mxGeometry x="68.87" y="1740" width="420.75" height="140" as="geometry"/>
                </mxCell>
                <mxCell id="65" value="END" style="strokeWidth=2;html=1;shape=mxgraph.flowchart.terminator;whiteSpace=wrap;" vertex="1" parent="1">
                    <mxGeometry x="229.25" y="2300" width="100" height="60" as="geometry"/>
                </mxCell>
                <mxCell id="66" value="Yes" style="edgeLabel;html=1;align=center;verticalAlign=middle;resizable=0;points=[];fontSize=12;fontFamily=Helvetica;fontColor=#000000;labelBackgroundColor=none;" vertex="1" connectable="0" parent="1">
                    <mxGeometry x="313.74809523809506" y="735" as="geometry"/>
                </mxCell>
                <mxCell id="67" value="Yes" style="edgeLabel;html=1;align=center;verticalAlign=middle;resizable=0;points=[];fontSize=12;fontFamily=Helvetica;fontColor=#000000;labelBackgroundColor=none;" vertex="1" connectable="0" parent="1">
                    <mxGeometry x="313.74809523809506" y="835" as="geometry"/>
                </mxCell>
                <mxCell id="68" value="Yes" style="edgeLabel;html=1;align=center;verticalAlign=middle;resizable=0;points=[];fontSize=12;fontFamily=Helvetica;fontColor=#000000;labelBackgroundColor=none;" vertex="1" connectable="0" parent="1">
                    <mxGeometry x="313.74809523809506" y="930" as="geometry">
                        <mxPoint x="1" y="4" as="offset"/>
                    </mxGeometry>
                </mxCell>
                <mxCell id="69" value="Yes" style="edgeLabel;html=1;align=center;verticalAlign=middle;resizable=0;points=[];fontSize=12;fontFamily=Helvetica;fontColor=#000000;labelBackgroundColor=none;" vertex="1" connectable="0" parent="1">
                    <mxGeometry x="313.74809523809506" y="1030" as="geometry">
                        <mxPoint x="1" y="4" as="offset"/>
                    </mxGeometry>
                </mxCell>
                <mxCell id="70" value="Yes" style="edgeLabel;html=1;align=center;verticalAlign=middle;resizable=0;points=[];fontSize=12;fontFamily=Helvetica;fontColor=#000000;labelBackgroundColor=none;" vertex="1" connectable="0" parent="1">
                    <mxGeometry x="313.74809523809506" y="1130" as="geometry">
                        <mxPoint x="1" y="4" as="offset"/>
                    </mxGeometry>
                </mxCell>
                <mxCell id="71" value="Yes" style="edgeLabel;html=1;align=center;verticalAlign=middle;resizable=0;points=[];fontSize=12;fontFamily=Helvetica;fontColor=#000000;labelBackgroundColor=none;" vertex="1" connectable="0" parent="1">
                    <mxGeometry x="313.74809523809506" y="1230" as="geometry">
                        <mxPoint x="1" y="4" as="offset"/>
                    </mxGeometry>
                </mxCell>
                <mxCell id="72" value="Yes" style="edgeLabel;html=1;align=center;verticalAlign=middle;resizable=0;points=[];fontSize=12;fontFamily=Helvetica;fontColor=#000000;labelBackgroundColor=none;" vertex="1" connectable="0" parent="1">
                    <mxGeometry x="313.74809523809506" y="1330" as="geometry">
                        <mxPoint x="1" y="4" as="offset"/>
                    </mxGeometry>
                </mxCell>
                <mxCell id="73" value="Yes" style="edgeLabel;html=1;align=center;verticalAlign=middle;resizable=0;points=[];fontSize=12;fontFamily=Helvetica;fontColor=#000000;labelBackgroundColor=none;" vertex="1" connectable="0" parent="1">
                    <mxGeometry x="313.74809523809506" y="1430" as="geometry">
                        <mxPoint x="1" y="4" as="offset"/>
                    </mxGeometry>
                </mxCell>
                <mxCell id="74" value="Yes" style="edgeLabel;html=1;align=center;verticalAlign=middle;resizable=0;points=[];fontSize=12;fontFamily=Helvetica;fontColor=#000000;labelBackgroundColor=none;" vertex="1" connectable="0" parent="1">
                    <mxGeometry x="313.74809523809506" y="1535" as="geometry">
                        <mxPoint x="1" y="4" as="offset"/>
                    </mxGeometry>
                </mxCell>
                <mxCell id="75" value="&lt;p style=&quot;line-height: 19px&quot;&gt;&lt;font&gt;carRPor = car * Math.ceil(q1 / 4) * 3;&lt;/font&gt;&lt;/p&gt;" style="rounded=1;whiteSpace=wrap;html=1;absoluteArcSize=1;arcSize=14;strokeWidth=2;fontSize=12;fontColor=#000000;" vertex="1" parent="1">
                    <mxGeometry x="360" y="605" width="300" height="60" as="geometry"/>
                </mxCell>
                <mxCell id="76" value="&lt;p style=&quot;line-height: 19px&quot;&gt;&lt;font&gt;roomRPor = car * Math.ceil(q1 /&amp;nbsp;2) * 3;&lt;/font&gt;&lt;/p&gt;" style="rounded=1;whiteSpace=wrap;html=1;absoluteArcSize=1;arcSize=14;strokeWidth=2;fontSize=12;fontColor=#000000;" vertex="1" parent="1">
                    <mxGeometry x="360" y="710" width="300" height="60" as="geometry"/>
                </mxCell>
            </root>
        </mxGraphModel>
    </diagram>
</mxfile>